<svg width="73" height="22" viewBox="0 0 73 22" fill="none" xmlns="http://www.w3.org/2000/svg">
<path fill-rule="evenodd" clip-rule="evenodd" d="M17.7083 17C16.0604 18.8412 13.6655 20 11 20C6.02944 20 2 15.9706 2 11C2 6.02944 6.02944 2 11 2C14.1204 2 16.8699 3.58803 18.4845 6H19.6622C17.9331 3.01099 14.7014 1 11 1C5.47715 1 1 5.47715 1 11C1 16.5228 5.47715 21 11 21C14.2716 21 17.1763 19.4289 19.0007 17H17.7083Z" fill="#384E84"/>
<path d="M14.508 13.668H17.268V15H12.828V6.624H14.508V13.668ZM21.2878 15.108C20.6478 15.108 20.0718 14.968 19.5598 14.688C19.0478 14.4 18.6438 13.996 18.3478 13.476C18.0598 12.956 17.9158 12.356 17.9158 11.676C17.9158 10.996 18.0638 10.396 18.3598 9.876C18.6638 9.356 19.0758 8.956 19.5958 8.676C20.1158 8.388 20.6958 8.244 21.3358 8.244C21.9758 8.244 22.5558 8.388 23.0758 8.676C23.5958 8.956 24.0038 9.356 24.2998 9.876C24.6038 10.396 24.7558 10.996 24.7558 11.676C24.7558 12.356 24.5998 12.956 24.2878 13.476C23.9838 13.996 23.5678 14.4 23.0398 14.688C22.5198 14.968 21.9358 15.108 21.2878 15.108ZM21.2878 13.644C21.5918 13.644 21.8758 13.572 22.1398 13.428C22.4118 13.276 22.6278 13.052 22.7878 12.756C22.9478 12.46 23.0278 12.1 23.0278 11.676C23.0278 11.044 22.8598 10.56 22.5238 10.224C22.1958 9.88 21.7918 9.708 21.3118 9.708C20.8318 9.708 20.4278 9.88 20.0998 10.224C19.7798 10.56 19.6198 11.044 19.6198 11.676C19.6198 12.308 19.7758 12.796 20.0878 13.14C20.4078 13.476 20.8078 13.644 21.2878 13.644ZM28.7602 13.452L30.4402 8.352H32.2282L29.7682 15H27.7282L25.2802 8.352H27.0802L28.7602 13.452ZM39.3518 11.532C39.3518 11.772 39.3358 11.988 39.3038 12.18H34.4438C34.4838 12.66 34.6518 13.036 34.9478 13.308C35.2438 13.58 35.6078 13.716 36.0398 13.716C36.6638 13.716 37.1078 13.448 37.3718 12.912H39.1838C38.9918 13.552 38.6238 14.08 38.0798 14.496C37.5358 14.904 36.8678 15.108 36.0758 15.108C35.4358 15.108 34.8598 14.968 34.3478 14.688C33.8438 14.4 33.4478 13.996 33.1598 13.476C32.8798 12.956 32.7397 12.356 32.7397 11.676C32.7397 10.988 32.8798 10.384 33.1598 9.864C33.4398 9.344 33.8318 8.944 34.3358 8.664C34.8398 8.384 35.4198 8.244 36.0758 8.244C36.7078 8.244 37.2718 8.38 37.7678 8.652C38.2718 8.924 38.6598 9.312 38.9318 9.816C39.2118 10.312 39.3518 10.884 39.3518 11.532ZM37.6118 11.052C37.6038 10.62 37.4478 10.276 37.1438 10.02C36.8398 9.756 36.4678 9.624 36.0278 9.624C35.6118 9.624 35.2598 9.752 34.9718 10.008C34.6918 10.256 34.5198 10.604 34.4558 11.052H37.6118ZM43.182 8.244C43.678 8.244 44.114 8.344 44.49 8.544C44.866 8.736 45.162 8.988 45.378 9.3V8.352H47.07V15.048C47.07 15.664 46.946 16.212 46.698 16.692C46.45 17.18 46.078 17.564 45.582 17.844C45.086 18.132 44.486 18.276 43.782 18.276C42.838 18.276 42.062 18.056 41.454 17.616C40.854 17.176 40.514 16.576 40.434 15.816H42.102C42.19 16.12 42.378 16.36 42.666 16.536C42.962 16.72 43.318 16.812 43.734 16.812C44.222 16.812 44.618 16.664 44.922 16.368C45.226 16.08 45.378 15.64 45.378 15.048V14.016C45.162 14.328 44.862 14.588 44.478 14.796C44.102 15.004 43.67 15.108 43.182 15.108C42.622 15.108 42.11 14.964 41.646 14.676C41.182 14.388 40.814 13.984 40.542 13.464C40.278 12.936 40.146 12.332 40.146 11.652C40.146 10.98 40.278 10.384 40.542 9.864C40.814 9.344 41.178 8.944 41.634 8.664C42.098 8.384 42.614 8.244 43.182 8.244ZM45.378 11.676C45.378 11.268 45.298 10.92 45.138 10.632C44.978 10.336 44.762 10.112 44.49 9.96C44.218 9.8 43.926 9.72 43.614 9.72C43.302 9.72 43.014 9.796 42.75 9.948C42.486 10.1 42.27 10.324 42.102 10.62C41.942 10.908 41.862 11.252 41.862 11.652C41.862 12.052 41.942 12.404 42.102 12.708C42.27 13.004 42.486 13.232 42.75 13.392C43.022 13.552 43.31 13.632 43.614 13.632C43.926 13.632 44.218 13.556 44.49 13.404C44.762 13.244 44.978 13.02 45.138 12.732C45.298 12.436 45.378 12.084 45.378 11.676ZM51.6628 15.108C51.0228 15.108 50.4468 14.968 49.9348 14.688C49.4228 14.4 49.0188 13.996 48.7228 13.476C48.4348 12.956 48.2908 12.356 48.2908 11.676C48.2908 10.996 48.4388 10.396 48.7348 9.876C49.0388 9.356 49.4508 8.956 49.9708 8.676C50.4908 8.388 51.0708 8.244 51.7108 8.244C52.3508 8.244 52.9308 8.388 53.4508 8.676C53.9708 8.956 54.3788 9.356 54.6748 9.876C54.9788 10.396 55.1308 10.996 55.1308 11.676C55.1308 12.356 54.9748 12.956 54.6628 13.476C54.3588 13.996 53.9428 14.4 53.4148 14.688C52.8948 14.968 52.3108 15.108 51.6628 15.108ZM51.6628 13.644C51.9668 13.644 52.2508 13.572 52.5148 13.428C52.7868 13.276 53.0028 13.052 53.1628 12.756C53.3228 12.46 53.4028 12.1 53.4028 11.676C53.4028 11.044 53.2348 10.56 52.8988 10.224C52.5708 9.88 52.1668 9.708 51.6868 9.708C51.2068 9.708 50.8028 9.88 50.4748 10.224C50.1548 10.56 49.9948 11.044 49.9948 11.676C49.9948 12.308 50.1508 12.796 50.4628 13.14C50.7828 13.476 51.1828 13.644 51.6628 13.644ZM59.3152 15.108C58.6752 15.108 58.0992 14.968 57.5872 14.688C57.0752 14.4 56.6712 13.996 56.3752 13.476C56.0872 12.956 55.9432 12.356 55.9432 11.676C55.9432 10.996 56.0912 10.396 56.3872 9.876C56.6912 9.356 57.1032 8.956 57.6232 8.676C58.1432 8.388 58.7232 8.244 59.3632 8.244C60.0032 8.244 60.5832 8.388 61.1032 8.676C61.6232 8.956 62.0312 9.356 62.3272 9.876C62.6312 10.396 62.7832 10.996 62.7832 11.676C62.7832 12.356 62.6272 12.956 62.3152 13.476C62.0112 13.996 61.5952 14.4 61.0672 14.688C60.5472 14.968 59.9632 15.108 59.3152 15.108ZM59.3152 13.644C59.6192 13.644 59.9032 13.572 60.1672 13.428C60.4392 13.276 60.6552 13.052 60.8152 12.756C60.9752 12.46 61.0552 12.1 61.0552 11.676C61.0552 11.044 60.8872 10.56 60.5512 10.224C60.2232 9.88 59.8192 9.708 59.3392 9.708C58.8592 9.708 58.4552 9.88 58.1272 10.224C57.8072 10.56 57.6472 11.044 57.6472 11.676C57.6472 12.308 57.8032 12.796 58.1152 13.14C58.4352 13.476 58.8352 13.644 59.3152 13.644ZM63.5835 11.652C63.5835 10.98 63.7155 10.384 63.9795 9.864C64.2515 9.344 64.6195 8.944 65.0835 8.664C65.5475 8.384 66.0635 8.244 66.6315 8.244C67.0635 8.244 67.4755 8.34 67.8675 8.532C68.2595 8.716 68.5715 8.964 68.8035 9.276V6.12H70.5075V15H68.8035V14.016C68.5955 14.344 68.3035 14.608 67.9275 14.808C67.5515 15.008 67.1155 15.108 66.6195 15.108C66.0595 15.108 65.5475 14.964 65.0835 14.676C64.6195 14.388 64.2515 13.984 63.9795 13.464C63.7155 12.936 63.5835 12.332 63.5835 11.652ZM68.8155 11.676C68.8155 11.268 68.7355 10.92 68.5755 10.632C68.4155 10.336 68.1995 10.112 67.9275 9.96C67.6555 9.8 67.3635 9.72 67.0515 9.72C66.7395 9.72 66.4515 9.796 66.1875 9.948C65.9235 10.1 65.7075 10.324 65.5395 10.62C65.3795 10.908 65.2995 11.252 65.2995 11.652C65.2995 12.052 65.3795 12.404 65.5395 12.708C65.7075 13.004 65.9235 13.232 66.1875 13.392C66.4595 13.552 66.7475 13.632 67.0515 13.632C67.3635 13.632 67.6555 13.556 67.9275 13.404C68.1995 13.244 68.4155 13.02 68.5755 12.732C68.7355 12.436 68.8155 12.084 68.8155 11.676Z" fill="#384E84"/>
</svg>
